<?xml version="1.0" encoding="UTF-8" standalone="no"?>
<svg
   xmlns:dc="http://purl.org/dc/elements/1.1/"
   xmlns:cc="http://creativecommons.org/ns#"
   xmlns:rdf="http://www.w3.org/1999/02/22-rdf-syntax-ns#"
   xmlns:svg="http://www.w3.org/2000/svg"
   xmlns="http://www.w3.org/2000/svg"
   xmlns:xlink="http://www.w3.org/1999/xlink"
   width="512"
   height="256"
   viewBox="0 0 512 256"
   id="svg4383"
   version="1.1">
  <defs
     id="defs4385">
    <linearGradient
       id="linearGradient5764">
      <stop
         style="stop-color:#ffffff;stop-opacity:1;"
         offset="0"
         id="stop5766" />
      <stop
         style="stop-color:#ffffff;stop-opacity:0;"
         offset="1"
         id="stop5768" />
    </linearGradient>
    <linearGradient
       xlink:href="#linearGradient5093"
       id="linearGradient5099"
       x1="203.32605"
       y1="1065.519"
       x2="31.98868"
       y2="786.21191"
       gradientUnits="userSpaceOnUse"
       gradientTransform="matrix(0.98299043,0,0,0.98299043,-6.652038,-787.04129)" />
    <linearGradient
       id="linearGradient5093">
      <stop
         style="stop-color:#ffcc00;stop-opacity:1;"
         offset="0"
         id="stop5095" />
      <stop
         style="stop-color:#ffcc00;stop-opacity:0;"
         offset="1"
         id="stop5097" />
    </linearGradient>
    <linearGradient
       xlink:href="#linearGradient5093"
       id="linearGradient5075"
       x1="-47.376152"
       y1="29.725828"
       x2="288.49957"
       y2="227.00862"
       gradientUnits="userSpaceOnUse"
       gradientTransform="matrix(0.98299043,0,0,0.98299043,-6.652038,-4.22491)" />
    <radialGradient
       r="12.012891"
       fy="1018.7132"
       fx="37.078465"
       cy="1018.7132"
       cx="37.078465"
       gradientTransform="matrix(6.4051332,0,0,7.3606119,-72.523907,-7427.1961)"
       gradientUnits="userSpaceOnUse"
       id="radialGradient5846-1"
       xlink:href="#linearGradient5764" />
    <linearGradient
       xlink:href="#linearGradient5093"
       id="linearGradient5480"
       gradientUnits="userSpaceOnUse"
       x1="233.79083"
       y1="259.60986"
       x2="19.908653"
       y2="-13.333352"
       gradientTransform="matrix(0.98299043,0,0,0.98299043,-6.652038,-4.22491)" />
  </defs>
  <metadata
     id="metadata4388">
    <rdf:RDF>
      <cc:Work
         rdf:about="">
        <dc:format>image/svg+xml</dc:format>
        <dc:type
           rdf:resource="http://purl.org/dc/dcmitype/StillImage" />
        <dc:title></dc:title>
      </cc:Work>
    </rdf:RDF>
  </metadata>
  <g
     id="g4302">
    <path
       style="display:inline;fill:url(#linearGradient5099);fill-opacity:1;stroke:none;stroke-width:0.5;stroke-linejoin:miter;stroke-miterlimit:4;stroke-dasharray:none;stroke-opacity:1"
       d="m 107.78176,2.66583 c -4.23953,0 -8.228884,0.65345 -13.079504,3.31736 L 17.304321,50.66379 C 8.38354,55.95616 2.079091,64.32666 2.068738,74.57857 c 0,30.78955 0,64.13082 0,91.83668 0.01047,10.35886 6.375168,18.97105 15.503871,24.03814 l 5.728032,3.30757 c 23.617153,13.64204 47.259884,27.28834 69.100625,39.89844 4.48346,3.2188 9.861424,4.9535 15.380494,4.9605 5.43701,0 10.7367,-1.6998 15.1788,-4.8352 l 75.08518,-43.3528 c 9.40754,-4.2916 15.44965,-13.67467 15.4608,-24.01465 l 0,-91.84041 c -0.0108,-10.25193 -5.9507,-19.57095 -15.23756,-23.91281 L 120.873,5.98342 C 115.68656,3.1365 111.94306,2.77301 107.78176,2.66606 Z"
       id="path5324" />
    <path
       style="display:inline;fill:#ffffff;fill-opacity:1;stroke:none;stroke-width:0.5;stroke-linejoin:miter;stroke-miterlimit:4;stroke-dasharray:none;stroke-opacity:1"
       d="m 107.78188,4.9791 c -4.15641,0 -8.067524,0.64064 -12.823044,3.25232 L 19.078504,52.03593 C 10.33264,57.22453 4.151807,65.4309 4.141658,75.48179 c 0,30.18584 0,62.87335 0,90.03596 0.01026,10.15574 6.250165,18.59907 15.199873,23.56682 l 5.615717,3.2427 c 23.154073,13.37463 46.33322,26.75333 67.745708,39.11613 4.39554,3.1557 9.668064,4.8564 15.078924,4.8631 5.3304,0 10.52617,-1.6664 14.88116,-4.7402 l 73.61293,-42.50281 c 9.22309,-4.20746 15.14671,-13.40654 15.15765,-23.54377 l 0,-90.03962 C 211.42302,65.42919 205.59959,56.29289 196.49484,52.03616 L 120.61642,8.23165 C 115.53169,5.44054 111.86158,5.08418 107.78188,4.97933 Z"
       id="path5326" />
    <path
       id="path5328"
       d="m 107.78188,4.9791 c -4.15641,0 -8.067524,0.64064 -12.823044,3.25232 L 19.078504,52.03593 C 10.33264,57.22453 4.151807,65.4309 4.141658,75.48179 c 0,30.18584 0,62.87335 0,90.03596 0.01026,10.15574 6.250165,18.59907 15.199873,23.56682 l 5.615717,3.2427 c 23.154073,13.37463 46.33322,26.75333 67.745708,39.11613 4.39554,3.1557 9.668064,4.8564 15.078924,4.8631 5.3304,0 10.52617,-1.6664 14.88116,-4.7402 l 73.61293,-42.50281 c 9.22309,-4.20746 15.14671,-13.40654 15.15765,-23.54377 l 0,-90.03962 C 211.42302,65.42919 205.59959,56.29289 196.49484,52.03616 L 120.61642,8.23165 C 115.53169,5.44054 111.86158,5.08418 107.78188,4.97933 Z"
       style="display:inline;fill:url(#linearGradient5075);fill-opacity:1;stroke:none;stroke-width:0.5;stroke-linejoin:miter;stroke-miterlimit:4;stroke-dasharray:none;stroke-opacity:1" />
    <path
       style="display:inline;fill:#2f2fff;fill-opacity:1;stroke:none;stroke-width:0.59100002;stroke-linejoin:miter;stroke-miterlimit:4;stroke-dasharray:none;stroke-opacity:1"
       d="m 107.78188,12.68752 0,0.004 c -3.8793,0 -7.53019,0.59587 -11.968684,3.03344 L 24.993726,56.61127 C 16.83092,61.45396 11.060826,69.11158 11.05139,78.49241 l 0,16.61676 a 67.582901,67.582901 0 0 1 3.678534,-3.52302 67.582901,67.582901 0 0 1 5.320051,-4.16043 67.582901,67.582901 0 0 0 0.0096,0 67.582901,67.582901 0 0 1 5.715551,-3.5979 67.582901,67.582901 0 0 1 6.049615,-3.00465 67.582901,67.582901 0 0 1 6.320321,-2.37684 67.582901,67.582901 0 0 1 6.527672,-1.74135 67.582901,67.582901 0 0 1 6.675502,-1.08475 67.582901,67.582901 0 0 1 6.736941,-0.41662 67.582901,67.582901 0 0 1 4.788239,0.12288 67.582901,67.582901 0 0 1 6.715821,0.73916 67.582901,67.582901 0 0 1 6.602547,1.40921 67.582901,67.582901 0 0 1 6.433602,2.0543 67.582901,67.582901 0 0 1 6.19552,2.7013 67.582901,67.582901 0 0 1 5.89218,3.29647 67.582901,67.582901 0 0 1 5.538934,3.86861 67.582901,67.582901 0 0 1 5.12037,4.40042 67.582901,67.582901 0 0 1 4.66153,4.89191 67.582901,67.582901 0 0 1 4.15276,5.32964 67.582901,67.582901 0 0 1 2.5957,4.02605 67.582901,67.582901 0 0 1 3.18128,5.95554 67.582901,67.582901 0 0 1 2.5765,6.24545 67.582901,67.582901 0 0 1 1.92951,6.47775 67.582901,67.582901 0 0 1 1.27097,6.63327 67.582901,67.582901 0 0 1 0.6067,6.72734 67.582901,67.582901 0 0 1 -0.0633,6.75806 67.582901,67.582901 0 0 1 -0.74109,6.71582 67.582901,67.582901 0 0 1 -1.40728,6.60255 67.582901,67.582901 0 0 1 -2.06581,6.4355 67.582901,67.582901 0 0 1 -2.68979,6.19361 67.582901,67.582901 0 0 1 -3.29647,5.89411 67.582901,67.582901 0 0 1 -3.8686,5.53699 67.582901,67.582901 0 0 1 -4.40235,5.12231 67.582901,67.582901 0 0 1 -4.89,4.66152 67.582901,67.582901 0 0 1 -5.341164,4.15083 67.582901,67.582901 0 0 1 -2.50163,1.65688 67.582901,67.582901 0 0 1 -5.88258,3.32719 67.582901,67.582901 0 0 1 -6.18593,2.71282 67.582901,67.582901 0 0 1 -6.424001,2.085 67.582901,67.582901 0 0 1 -6.602547,1.4399 67.582901,67.582901 0 0 1 -1.418809,0.1632 c 8.366881,4.8304 17.468167,10.0857 25.143057,14.5183 4.10252,2.9453 9.022754,4.5309 14.072884,4.5368 4.97504,0 9.82585,-1.5547 13.8905,-4.4235 l 68.70374,-39.66901 c 8.60822,-3.92691 14.13755,-12.51371 14.14777,-21.97522 l 0,-84.03608 c -0.01,-9.38084 -5.44455,-17.90817 -13.94232,-21.88114 L 119.76206,15.7248 c -4.74575,-2.60503 -8.17248,-2.93943 -11.98018,-3.03728 z"
       id="path5330" />
    <path
       style="fill:url(#radialGradient5846-1);fill-opacity:1;stroke:none;stroke-width:0.1;stroke-linejoin:miter;stroke-miterlimit:4;stroke-dasharray:none;stroke-opacity:1"
       d="m 107.78206,10.48717 c -1.45491,0 -2.8848,0.13883 -4.32822,0.36311 a 86.228168,86.228168 0 0 0 -24.717833,60.30277 86.228168,86.228168 0 0 0 86.230783,86.23113 86.228168,86.228168 0 0 0 41.53012,-10.77378 l 0,-68.9806 c -0.0101,-9.57228 -5.5546,-18.27522 -14.22579,-22.32926 L 120.0054,13.5827 c -4.8426,-2.6582 -8.3379,-2.99781 -12.22334,-3.09767 z"
       id="path5332" />
    <path
       d="m 184.16252,71.15645 -15.12228,6.09728 -4.07163,22.64562 -4.07165,-22.64562 -15.12226,-6.09728 15.12226,-6.0973 4.07165,-22.64562 4.07163,22.64562 z"
       id="path5334"
       style="display:inline;fill:#acff00;fill-opacity:1;stroke:none;stroke-width:0.09565938;stroke-miterlimit:4;stroke-dasharray:none;stroke-opacity:1" />
    <circle
       r="2.2013311"
       cy="62.394093"
       cx="50.391899"
       id="circle5336"
       style="opacity:1;fill:#ffff00;fill-opacity:1;stroke:none;stroke-width:0.1;stroke-linejoin:miter;stroke-miterlimit:4;stroke-dasharray:none;stroke-opacity:1" />
    <circle
       r="2.0653243"
       cy="48.795887"
       cx="102.72551"
       id="circle5338"
       style="opacity:1;fill:#ffff00;fill-opacity:1;stroke:none;stroke-width:0.1;stroke-linejoin:miter;stroke-miterlimit:4;stroke-dasharray:none;stroke-opacity:1" />
    <circle
       r="1.7279868"
       cy="53.317005"
       cx="71.906128"
       id="circle5340"
       style="opacity:1;fill:#ffff00;fill-opacity:1;stroke:none;stroke-width:0.1;stroke-linejoin:miter;stroke-miterlimit:4;stroke-dasharray:none;stroke-opacity:1" />
    <circle
       r="1.7731564"
       cy="66.957077"
       cx="85.890778"
       id="circle5342"
       style="opacity:1;fill:#ffff00;fill-opacity:1;stroke:none;stroke-width:0.1;stroke-linejoin:miter;stroke-miterlimit:4;stroke-dasharray:none;stroke-opacity:1" />
    <circle
       r="1.4376879"
       cy="64.785995"
       cx="34.158913"
       id="circle5344"
       style="opacity:1;fill:#ffff00;fill-opacity:1;stroke:none;stroke-width:0.1;stroke-linejoin:miter;stroke-miterlimit:4;stroke-dasharray:none;stroke-opacity:1" />
    <circle
       r="1.2226274"
       cy="34.268604"
       cx="88.898514"
       id="circle5346"
       style="opacity:1;fill:#ffff00;fill-opacity:1;stroke:none;stroke-width:0.1;stroke-linejoin:miter;stroke-miterlimit:4;stroke-dasharray:none;stroke-opacity:1" />
    <circle
       r="1.8931323"
       cy="67.243942"
       cx="113.29423"
       id="circle5350"
       style="opacity:1;fill:#ffff00;fill-opacity:1;stroke:none;stroke-width:0.1;stroke-linejoin:miter;stroke-miterlimit:4;stroke-dasharray:none;stroke-opacity:1" />
    <circle
       r="1.5932088"
       cy="31.533497"
       cx="110.91717"
       id="circle5354"
       style="opacity:1;fill:#ffff00;fill-opacity:1;stroke:none;stroke-width:0.1;stroke-linejoin:miter;stroke-miterlimit:4;stroke-dasharray:none;stroke-opacity:1" />
    <circle
       r="1.2005845"
       cy="187.32487"
       cx="129.35684"
       id="circle5356"
       style="opacity:1;fill:#ffff00;fill-opacity:1;stroke:none;stroke-width:0.1;stroke-linejoin:miter;stroke-miterlimit:4;stroke-dasharray:none;stroke-opacity:1" />
    <circle
       r="1.3616536"
       cy="194.38914"
       cx="142.3205"
       id="circle5358"
       style="opacity:1;fill:#ffff00;fill-opacity:1;stroke:none;stroke-width:0.1;stroke-linejoin:miter;stroke-miterlimit:4;stroke-dasharray:none;stroke-opacity:1" />
    <circle
       r="1.2187276"
       cy="204.1577"
       cx="116.63145"
       id="circle5360"
       style="opacity:1;fill:#ffff00;fill-opacity:1;stroke:none;stroke-width:0.1;stroke-linejoin:miter;stroke-miterlimit:4;stroke-dasharray:none;stroke-opacity:1" />
    <circle
       r="1.0961628"
       cy="213.71037"
       cx="100.46145"
       id="circle5364"
       style="opacity:1;fill:#ffff00;fill-opacity:1;stroke:none;stroke-width:0.1;stroke-linejoin:miter;stroke-miterlimit:4;stroke-dasharray:none;stroke-opacity:1" />
    <circle
       r="1.1125746"
       cy="173.76158"
       cx="173.08794"
       id="circle5366"
       style="opacity:1;fill:#ffff00;fill-opacity:1;stroke:none;stroke-width:0.1;stroke-linejoin:miter;stroke-miterlimit:4;stroke-dasharray:none;stroke-opacity:1" />
    <circle
       r="2.0582778"
       cy="175.70842"
       cx="152.92444"
       id="circle5368"
       style="opacity:1;fill:#ffff00;fill-opacity:1;stroke:none;stroke-width:0.1;stroke-linejoin:miter;stroke-miterlimit:4;stroke-dasharray:none;stroke-opacity:1" />
    <circle
       r="2.6736901"
       cy="151.96074"
       cx="144.19505"
       id="circle5370"
       style="opacity:1;fill:#ffff00;fill-opacity:1;stroke:none;stroke-width:0.1;stroke-linejoin:miter;stroke-miterlimit:4;stroke-dasharray:none;stroke-opacity:1" />
    <circle
       r="2.3120365"
       cy="150.33513"
       cx="168.09286"
       id="circle5374"
       style="opacity:1;fill:#ffff00;fill-opacity:1;stroke:none;stroke-width:0.1;stroke-linejoin:miter;stroke-miterlimit:4;stroke-dasharray:none;stroke-opacity:1" />
    <circle
       r="3.8556769"
       cy="124.51067"
       cx="151.12729"
       id="circle5376"
       style="opacity:1;fill:#ffff00;fill-opacity:1;stroke:none;stroke-width:0.1;stroke-linejoin:miter;stroke-miterlimit:4;stroke-dasharray:none;stroke-opacity:1" />
    <circle
       r="1.2389567"
       cy="113.67497"
       cx="185.08928"
       id="circle5378"
       style="opacity:1;fill:#ffff00;fill-opacity:1;stroke:none;stroke-width:0.1;stroke-linejoin:miter;stroke-miterlimit:4;stroke-dasharray:none;stroke-opacity:1" />
    <circle
       r="0.87607467"
       cy="88.587631"
       cx="112.1103"
       id="circle5380"
       style="opacity:1;fill:#ffff00;fill-opacity:1;stroke:none;stroke-width:0.1;stroke-linejoin:miter;stroke-miterlimit:4;stroke-dasharray:none;stroke-opacity:1" />
    <circle
       r="0.99518758"
       cy="50.159412"
       cx="130.75211"
       id="circle5382"
       style="opacity:1;fill:#ffff00;fill-opacity:1;stroke:none;stroke-width:0.1;stroke-linejoin:miter;stroke-miterlimit:4;stroke-dasharray:none;stroke-opacity:1" />
    <circle
       r="0.86172372"
       cy="77.392868"
       cx="19.398891"
       id="circle5384"
       style="opacity:1;fill:#ffff00;fill-opacity:1;stroke:none;stroke-width:0.1;stroke-linejoin:miter;stroke-miterlimit:4;stroke-dasharray:none;stroke-opacity:1" />
    <path
       style="display:inline;fill:#ffffff;fill-opacity:1;stroke:none;stroke-width:0.59100002;stroke-linejoin:miter;stroke-miterlimit:4;stroke-dasharray:none;stroke-opacity:1"
       d="m 107.78188,10.48539 0,0.002 c -3.95847,0 -7.68346,0.60948 -12.212514,3.0968 L 23.304211,55.30364 C 14.974817,60.24516 9.087395,68.05984 9.077729,77.63211 l 0,85.74864 c 0.0097,9.6721 5.95254,17.71247 14.47607,22.44367 23.791541,13.74421 48.539917,28.02528 69.867197,40.34288 4.18624,3.0054 9.207684,4.6244 14.360884,4.6308 5.07656,0 10.02703,-1.5883 14.17463,-4.5156 l 70.10527,-40.47728 c 8.78389,-4.00705 14.42537,-12.76989 14.43576,-22.42447 l 0,-85.75056 c -0.0101,-9.57228 -5.55529,-18.27442 -14.22649,-22.32847 L 120.0059,13.58414 c -4.8426,-2.65819 -8.3386,-2.99887 -12.22402,-3.09872 z m 0,2.20213 c 3.8077,0.0978 7.23443,0.43225 11.98018,3.03728 l 70.81947,40.88434 c 8.49779,3.97297 13.93243,12.5003 13.94234,21.88114 l 0,84.03608 c -0.0102,9.46151 -5.53955,18.04831 -14.14776,21.97522 l -68.70373,39.66902 c -4.06466,2.8688 -8.91548,4.4235 -13.8905,4.4235 -5.05014,-0.01 -9.970384,-1.5915 -14.072894,-4.5368 C 72.808252,211.986 48.553264,197.99011 25.237554,184.52078 16.884494,179.88421 11.060924,172.00502 11.05139,162.52636 l 0,-84.03416 c 0.0094,-9.38083 5.77953,-17.03845 13.942336,-21.88114 L 95.813196,15.7248 c 4.438494,-2.43757 8.089384,-3.03344 11.968684,-3.03344 l 0,-0.004 z"
       id="path5464" />
    <path
       id="path5466"
       d="m 107.78188,10.48539 0,0.002 c -3.95847,0 -7.68346,0.60948 -12.212514,3.0968 L 23.304211,55.30364 C 14.974817,60.24516 9.087395,68.05984 9.077729,77.63211 l 0,85.74864 c 0.0097,9.6721 5.95254,17.71247 14.47607,22.44367 23.791541,13.74421 48.539917,28.02528 69.867197,40.34288 4.18624,3.0054 9.207684,4.6244 14.360884,4.6308 5.07656,0 10.02703,-1.5883 14.17463,-4.5156 l 70.10527,-40.47728 c 8.78389,-4.00705 14.42537,-12.76989 14.43576,-22.42447 l 0,-85.75056 c -0.0101,-9.57228 -5.55529,-18.27442 -14.22649,-22.32847 L 120.0059,13.58414 c -4.8426,-2.65819 -8.3386,-2.99887 -12.22402,-3.09872 z m 0,2.20213 c 3.8077,0.0978 7.23443,0.43225 11.98018,3.03728 l 70.81947,40.88434 c 8.49779,3.97297 13.93243,12.5003 13.94234,21.88114 l 0,84.03608 c -0.0102,9.46151 -5.53955,18.04831 -14.14776,21.97522 l -68.70373,39.66902 c -4.06466,2.8688 -8.91548,4.4235 -13.8905,4.4235 -5.05014,-0.01 -9.970384,-1.5915 -14.072894,-4.5368 C 72.808252,211.986 48.553264,197.99011 25.237554,184.52078 16.884494,179.88421 11.060924,172.00502 11.05139,162.52636 l 0,-84.03416 c 0.0094,-9.38083 5.77953,-17.03845 13.942336,-21.88114 L 95.813196,15.7248 c 4.438494,-2.43757 8.089384,-3.03344 11.968684,-3.03344 l 0,-0.004 z"
       style="display:inline;fill:url(#linearGradient5480);fill-opacity:1;stroke:none;stroke-width:0.59100002;stroke-linejoin:miter;stroke-miterlimit:4;stroke-dasharray:none;stroke-opacity:1" />
    <path
       id="path5468"
       d="m 53.600284,81.08215 a 64.879585,64.879585 0 0 0 -6.475835,0.3859 64.879585,64.879585 0 0 0 -6.404796,1.04251 64.879585,64.879585 0 0 0 -6.266564,1.66839 64.879585,64.879585 0 0 0 -6.059214,2.29429 64.879585,64.879585 0 0 0 -5.809627,2.87793 64.879585,64.879585 0 0 0 -5.496682,3.45391 64.879585,64.879585 0 0 0 -3.348312,2.51314 64.879585,64.879585 0 0 0 -2.687864,2.38645 l 0,64.82169 c 0.0095,9.47866 5.833104,17.35785 14.186164,21.99442 14.599812,8.43421 28.593053,16.5118 42.875278,24.75712 a 64.879585,64.879585 0 0 0 6.013136,-1.5916 64.879585,64.879585 0 0 0 6.070734,-2.2731 64.879585,64.879585 0 0 0 5.819224,-2.87797 64.879585,64.879585 0 0 0 5.49669,-3.43087 64.879585,64.879585 0 0 0 3.65933,-2.76466 64.879585,64.879585 0 0 0 4.830484,-4.33899 64.879585,64.879585 0 0 0 4.36969,-4.78632 64.879585,64.879585 0 0 0 3.86861,-5.20486 64.879585,64.879585 0 0 0 3.32719,-5.56962 64.879585,64.879585 0 0 0 2.75315,-5.87107 64.879585,64.879585 0 0 0 2.15989,-6.11298 64.879585,64.879585 0 0 0 1.53208,-6.29919 64.879585,64.879585 0 0 0 0.90811,-6.424 64.879585,64.879585 0 0 0 0.24959,-6.47584 64.879585,64.879585 0 0 0 -0.3955,-6.47774 64.879585,64.879585 0 0 0 -1.0329,-6.40289 64.879585,64.879585 0 0 0 -1.67992,-6.26849 64.879585,64.879585 0 0 0 -2.28277,-6.05921 64.879585,64.879585 0 0 0 -2.88945,-5.80963 64.879585,64.879585 0 0 0 -3.45199,-5.49668 64.879585,64.879585 0 0 0 -2.75314,-3.65933 64.879585,64.879585 0 0 0 -4.33898,-4.83047 64.879585,64.879585 0 0 0 -4.788234,-4.36971 64.879585,64.879585 0 0 0 -5.20295,-3.8686 64.879585,64.879585 0 0 0 -5.56964,-3.3272 64.879585,64.879585 0 0 0 -5.871059,-2.75314 64.879585,64.879585 0 0 0 -6.112972,-2.15989 64.879585,64.879585 0 0 0 -6.299202,-1.5436 64.879585,64.879585 0 0 0 -6.423996,-0.8966 64.879585,64.879585 0 0 0 -6.477753,-0.2515 z m -37.178926,99.38762 c 0.411759,0.41511 0.837405,0.81857 1.276736,1.21147 -0.438978,-0.39256 -0.865286,-0.79673 -1.276736,-1.21147 z"
       style="display:inline;fill:#d4aa00;fill-opacity:1;stroke:none;stroke-width:0.54322845;stroke-linejoin:miter;stroke-miterlimit:4;stroke-dasharray:none;stroke-opacity:1" />
    <path
       id="path5470"
       d="m 58.085178,75.20532 a 67.582901,67.582901 0 0 0 -6.736941,0.4147 67.582901,67.582901 0 0 0 -6.675503,1.08475 67.582901,67.582901 0 0 0 -6.527671,1.74327 67.582901,67.582901 0 0 0 -6.320321,2.37684 67.582901,67.582901 0 0 0 -6.049616,3.00465 67.582901,67.582901 0 0 0 -5.715551,3.5979 67.582901,67.582901 0 0 0 -0.0096,0 67.582901,67.582901 0 0 0 -5.320052,4.16043 67.582901,67.582901 0 0 0 -3.678534,3.5211 l 0,2.60147 a 64.879585,64.879585 0 0 1 2.687865,-2.38836 64.879585,64.879585 0 0 1 3.34831,-2.51315 64.879585,64.879585 0 0 1 5.496684,-3.45199 64.879585,64.879585 0 0 1 5.809626,-2.87986 64.879585,64.879585 0 0 1 6.059214,-2.29428 64.879585,64.879585 0 0 1 6.268485,-1.6684 64.879585,64.879585 0 0 1 6.402876,-1.0425 64.879585,64.879585 0 0 1 6.475834,-0.38398 64.879585,64.879585 0 0 1 6.477754,0.24958 64.879585,64.879585 0 0 1 6.423995,0.89852 64.879585,64.879585 0 0 1 6.299203,1.5436 64.879585,64.879585 0 0 1 6.112972,2.15797 64.879585,64.879585 0 0 1 5.871059,2.75314 64.879585,64.879585 0 0 1 5.56964,3.3272 64.879585,64.879585 0 0 1 5.20295,3.8686 64.879585,64.879585 0 0 1 4.788234,4.37163 64.879585,64.879585 0 0 1 4.33898,4.82855 64.879585,64.879585 0 0 1 2.75314,3.65933 64.879585,64.879585 0 0 1 3.45199,5.49669 64.879585,64.879585 0 0 1 2.88945,5.80962 64.879585,64.879585 0 0 1 2.28277,6.05922 64.879585,64.879585 0 0 1 1.67992,6.26848 64.879585,64.879585 0 0 1 1.03291,6.40287 64.879585,64.879585 0 0 1 0.39549,6.47776 64.879585,64.879585 0 0 1 -0.24959,6.47584 64.879585,64.879585 0 0 1 -0.90811,6.42592 64.879585,64.879585 0 0 1 -1.53208,6.29919 64.879585,64.879585 0 0 1 -2.15989,6.11106 64.879585,64.879585 0 0 1 -2.75315,5.87105 64.879585,64.879585 0 0 1 -3.32719,5.56965 64.879585,64.879585 0 0 1 -3.86861,5.20486 64.879585,64.879585 0 0 1 -4.36969,4.78631 64.879585,64.879585 0 0 1 -4.828564,4.33898 64.879585,64.879585 0 0 1 -3.66126,2.76466 64.879585,64.879585 0 0 1 -5.49668,3.43087 64.879585,64.879585 0 0 1 -5.819225,2.87794 64.879585,64.879585 0 0 1 -6.070733,2.2751 64.879585,64.879585 0 0 1 -6.009297,1.5877 c 0.150376,0.087 0.300955,0.1744 0.451177,0.2611 a 67.582901,67.582901 0 0 0 1.416889,-0.1631 67.582901,67.582901 0 0 0 6.602548,-1.44 67.582901,67.582901 0 0 0 6.423991,-2.085 67.582901,67.582901 0 0 0 6.18593,-2.71281 67.582901,67.582901 0 0 0 5.88259,-3.32719 67.582901,67.582901 0 0 0 2.50163,-1.6588 67.582901,67.582901 0 0 0 5.341174,-4.15083 67.582901,67.582901 0 0 0 4.88999,-4.66152 67.582901,67.582901 0 0 0 4.40234,-5.12038 67.582901,67.582901 0 0 0 3.86861,-5.53701 67.582901,67.582901 0 0 0 3.29647,-5.8941 67.582901,67.582901 0 0 0 2.68979,-6.19553 67.582901,67.582901 0 0 0 2.06581,-6.43359 67.582901,67.582901 0 0 0 1.40729,-6.60255 67.582901,67.582901 0 0 0 0.74109,-6.71582 67.582901,67.582901 0 0 0 0.0633,-6.75997 67.582901,67.582901 0 0 0 -0.60477,-6.72543 67.582901,67.582901 0 0 0 -1.2729,-6.63327 67.582901,67.582901 0 0 0 -1.9295,-6.47775 67.582901,67.582901 0 0 0 -2.57651,-6.24736 67.582901,67.582901 0 0 0 -3.18129,-5.95554 67.582901,67.582901 0 0 0 -2.5957,-4.02412 67.582901,67.582901 0 0 0 -4.15275,-5.32966 67.582901,67.582901 0 0 0 -4.66152,-4.8919 67.582901,67.582901 0 0 0 -5.12039,-4.40042 67.582901,67.582901 0 0 0 -5.538924,-3.87053 67.582901,67.582901 0 0 0 -5.89218,-3.29455 67.582901,67.582901 0 0 0 -6.19553,-2.7013 67.582901,67.582901 0 0 0 -6.433592,-2.05622 67.582901,67.582901 0 0 0 -6.602548,-1.40729 67.582901,67.582901 0 0 0 -6.715821,-0.74108 67.582901,67.582901 0 0 0 -4.788239,-0.12096 z"
       style="display:inline;fill:#000000;fill-opacity:1;stroke:none;stroke-width:0.54322845;stroke-linejoin:miter;stroke-miterlimit:4;stroke-dasharray:none;stroke-opacity:1" />
    <path
       id="path5472"
       d="m 131.7173,76.3803 a 32.325736,106.23834 55 0 0 -36.773824,9.31345 67.582901,67.582901 0 0 1 0.26111,0.17664 30.062935,98.801652 55 0 1 43.084544,-1.84695 30.062935,98.801652 55 0 1 -15.12307,38.34047 30.062935,98.801652 55 0 1 -6.22625,6.99612 30.062935,98.801652 55 0 1 -42.343465,35.96171 30.062935,98.801652 55 0 1 -40.870899,24.10055 c 1.790298,1.03397 3.427087,1.97877 5.220217,3.01424 a 32.325736,106.23834 55 0 0 38.413423,-23.16171 32.325736,106.23834 55 0 0 40.863234,-33.89589 32.325736,106.23834 55 0 0 6.59101,-6.87326 32.325736,106.23834 55 0 0 21.02678,-46.65172 32.325736,106.23834 55 0 0 -14.12281,-5.47365 z"
       style="display:inline;fill:#000000;fill-opacity:1;stroke:none;stroke-width:0.97781122;stroke-miterlimit:4;stroke-dasharray:none;stroke-opacity:1" />
    <path
       id="path5493"
       d="m 196.62732,127.09647 -3.2696,23.70888 c 0.13832,-0.0262 -3.86014,16.19576 -8.16727,21.19957 -1.70557,1.98146 -11.55242,10.5703 -20.30105,18.10661 l 18.74401,-10.8225 c 7.90551,-3.60633 12.98455,-11.49289 12.99391,-20.18202 l 0,-32.01054 z"
       style="display:inline;fill:#0000ff;fill-opacity:0.30225082;stroke:none;stroke-width:0.59100002;stroke-linejoin:miter;stroke-miterlimit:4;stroke-dasharray:none;stroke-opacity:1" />
    <path
       style="display:inline;fill:#0000ff;fill-opacity:0.30225082;stroke:none;stroke-width:0.59100002;stroke-linejoin:miter;stroke-miterlimit:4;stroke-dasharray:none;stroke-opacity:1"
       d="M 18.976522,113.87553 22.246124,90.16664 C 22.107799,90.19284 26.106259,73.97088 30.41339,68.96707 32.118966,66.98562 41.965807,58.39678 50.714442,50.86046 L 31.970436,61.68296 C 24.064923,65.2893 18.98588,73.17586 18.976522,81.86498 l 0,32.01055 z"
       id="path5495" />
    <g
       transform="translate(-19.285714,-795.6479)"
       style="font-style:normal;font-variant:normal;font-weight:normal;font-stretch:normal;font-size:176.83906555px;line-height:125%;font-family:'Good Morning';-inkscape-font-specification:'Good Morning, Normal';text-align:start;letter-spacing:0px;word-spacing:0px;writing-mode:lr-tb;text-anchor:start;fill:#000000;fill-opacity:1;stroke:none;stroke-width:1px;stroke-linecap:butt;stroke-linejoin:miter;stroke-opacity:1"
       id="flowRoot5904">
      <path
         d="m 243.92482,964.17754 q -1.41471,3.00627 -3.89045,7.78092 -2.47575,4.59782 -5.30518,9.72615 -2.82942,5.12833 -6.01252,10.43351 -3.18311,5.12833 -6.18937,9.37248 -3.00627,4.0673 -5.83569,6.543 -2.65259,2.4758 -4.59782,2.2989 -3.89046,-0.5305 -6.01253,-4.0673 -2.12206,-3.3599 -2.2989,-9.19559 0,-5.83569 1.94523,-13.79345 2.12207,-7.95776 6.54304,-17.50707 4.59782,-9.5493 6.36621,-14.32396 1.94523,-4.95149 2.29891,-7.07356 0.35367,-2.29891 -0.53052,-2.29891 l -14.85448,23.34276 q -4.9515,7.42724 -7.95776,16.62287 -0.70736,1.94523 -1.23787,3.71362 -0.53052,1.76839 -1.06104,3.1831 -0.35368,0.8842 -1.06103,1.59155 -0.70736,0.53052 -1.59155,0.53052 -1.06104,0 -1.76839,-0.70736 -2.12207,-1.41471 -4.24414,-3.71362 -1.94523,-2.47574 -1.59155,-5.30517 0.35367,-2.29891 2.12206,-6.89672 1.94523,-4.77466 3.89046,-9.54931 2.12207,-4.77466 3.53679,-8.31144 1.41471,-3.71362 0.70735,-3.71362 -0.35368,0 -2.12207,1.76839 -1.59155,1.76839 -3.89046,4.77466 -2.2989,2.82942 -5.12833,6.3662 -2.65259,3.35995 -5.12833,6.71989 -4.24414,5.65885 -6.71989,12.37873 -3.00626,9.19564 -5.30517,14.32397 -2.29891,4.95152 -4.59781,4.59782 -3.00627,-0.3537 -5.48202,-1.7684 -2.47574,-1.5915 -2.12206,-4.59781 0.17683,-1.06104 1.41471,-4.24414 1.06103,-3.35994 2.65258,-7.95776 1.59156,-4.77465 3.53679,-10.07982 1.94523,-5.30518 3.53678,-10.07983 1.76839,-4.9515 3.00626,-8.84195 1.23787,-4.0673 1.41471,-6.01253 0.53052,-4.59782 -1.06103,-6.54305 -0.35368,-0.53052 0,-0.88419 0.35368,-0.53052 0.88419,-0.35368 2.82943,0.70735 4.9515,2.65258 2.29891,1.76839 3.35994,5.30518 1.23787,3.35994 0.8842,8.31143 -0.17684,4.9515 -2.29891,11.67138 2.29891,-3.00626 5.12833,-6.54304 2.82943,-3.53679 5.30517,-6.54305 2.65259,-3.1831 4.77466,-5.12833 2.12207,-1.94523 3.00626,-1.76839 3.00627,0.35367 5.83569,3.00626 3.00627,2.65259 2.47575,7.60408 -0.17684,0.8842 -0.53052,2.65259 -0.35368,1.59155 -0.88419,3.71362 1.94523,-3.18311 4.95149,-8.1346 3.00626,-5.12833 6.01253,-9.90299 3.00626,-4.77465 5.48201,-8.1346 2.65258,-3.53678 3.53678,-3.35994 1.06103,0 2.12207,1.59155 1.06103,1.41472 1.59155,4.24414 0.70736,2.65259 0.70736,6.54305 0.17684,3.89046 -0.70736,8.66511 -0.35368,2.29891 -1.76839,6.36621 -1.41471,4.0673 -3.1831,9.01879 -1.76839,4.77465 -3.53678,9.72615 -1.59156,4.95149 -2.65259,9.19563 -1.06104,4.0673 -1.23787,6.71988 0,2.65257 1.59155,2.82947 1.76839,0.1768 5.30517,-4.42102 3.53678,-4.77465 7.60408,-11.3177 4.0673,-6.54304 7.78092,-13.26293 3.89046,-6.71988 6.01253,-10.61034 0.35367,-0.70736 1.06103,-0.70736 0.70736,0 1.06103,0.53052 0.35368,0.53052 0,1.23787 z"
         style="font-style:normal;font-variant:normal;font-weight:normal;font-stretch:normal;font-size:176.83906555px;line-height:125%;font-family:'Good Morning';-inkscape-font-specification:'Good Morning, Normal';text-align:start;writing-mode:lr-tb;text-anchor:start"
         id="path4288" />
      <path
         d="m 249.21618,972.84266 q 3.00626,-5.48201 6.71988,-10.96402 3.71362,-5.65885 7.42725,-10.07983 3.71362,-4.59782 7.07356,-7.42724 3.35994,-2.82943 6.01253,-2.65259 5.30517,0.17684 7.95775,3.00627 1.23788,1.06103 1.94523,3.00626 0.70736,1.76839 0.35368,4.59782 -0.17684,2.65258 -1.59155,6.3662 -1.41471,3.71362 -4.42098,8.66512 -8.31143,13.97028 -16.97655,19.80597 -8.66511,5.83569 -16.79971,5.83569 -1.76839,0 -2.65258,-0.17684 -2.65259,9.54933 -5.83569,19.62913 -3.18311,10.0798 -6.89673,18.2144 -3.71362,8.3115 -7.60408,13.4398 -4.06729,5.3052 -8.31143,5.3052 -0.70736,0 -1.23788,-0.1769 -0.70735,-0.1768 -1.59155,-0.5305 -0.70735,-0.3537 -0.70735,-1.4147 -0.17684,-0.8842 0.35367,-1.5915 2.82943,-3.5368 6.18937,-10.7872 3.1831,-7.0736 6.18937,-15.385 3.00626,-8.1346 5.65885,-16.0924 2.47575,-8.13458 4.0673,-13.61659 -3.35994,-1.76839 -5.48201,-4.0673 -0.53052,-0.53052 -0.17684,-1.06104 0.17684,-0.53051 0.88419,-0.53051 l 0.35368,0 q 1.23787,0.70735 2.65259,1.23787 1.23787,0.53052 2.65258,1.06104 3.18311,-11.14087 4.9515,-19.09862 1.76839,-7.95776 2.47574,-13.26293 0.70736,-5.48201 0.70736,-8.66512 0,-3.1831 -0.35368,-4.77465 -0.17684,-0.8842 0.17684,-1.41471 0.53052,-0.70736 1.23787,-0.35368 2.12207,0.70735 3.89046,2.2989 1.94523,1.59156 3.00627,4.42098 1.06103,2.65259 1.06103,6.89672 0.17684,4.0673 -1.06103,10.07983 -0.35368,1.94523 -0.8842,4.59782 -0.53051,2.47574 -1.41471,5.65885 z m -3.53678,14.67764 q 4.77465,-1.06103 9.01879,-4.42098 4.42098,-3.53678 8.1346,-7.95775 3.71362,-4.59782 6.71988,-9.54931 3.00627,-5.12834 4.9515,-9.37247 1.94523,-4.24414 2.65258,-7.25041 0.70736,-3.00626 -0.17684,-3.35994 -0.35367,-0.17684 -1.06103,-0.17684 -2.47575,0 -6.18937,3.71362 -3.53678,3.71362 -7.42724,9.19563 -3.89046,5.48202 -7.78092,11.67138 -3.71362,6.01253 -6.54304,10.78719 -0.8842,1.76839 -1.41472,3.35994 -0.53051,1.41471 -0.88419,3.35994 z"
         style="font-style:normal;font-variant:normal;font-weight:normal;font-stretch:normal;font-size:176.83906555px;line-height:125%;font-family:'Good Morning';-inkscape-font-specification:'Good Morning, Normal';text-align:start;writing-mode:lr-tb;text-anchor:start"
         id="path4290" />
      <path
         d="m 293.7741,986.45927 q -1.23788,5.30517 0.17684,8.48827 1.59155,3.1831 5.12833,3.1831 4.0673,0 9.54931,-4.42097 5.65885,-4.42098 11.14086,-10.25667 5.65885,-6.01253 10.4335,-11.84822 4.77466,-6.01252 7.07357,-9.01879 0.35368,-0.53052 1.06103,-0.53052 0.70736,0 0.8842,0.70736 0.35368,0.53052 0,1.23787 -1.76839,2.47575 -4.59782,6.36621 -2.82942,3.89046 -6.54304,8.31144 -3.71362,4.42097 -7.95776,8.84195 -4.24414,4.42098 -8.84196,7.95776 -4.42097,3.53678 -9.01879,5.83564 -4.59781,2.1221 -8.84195,2.1221 -3.1831,0 -6.18937,-1.5915 -5.12833,-2.82946 -5.83569,-8.31147 -0.70735,-5.65885 1.59155,-12.2019 2.29891,-6.71988 6.71989,-13.61661 4.59781,-6.89672 10.07983,-12.55557 5.48201,-5.83569 10.96402,-9.37247 5.65885,-3.71362 10.07982,-3.71362 4.24414,0.17684 6.54305,1.76839 2.12207,1.41471 2.47575,4.42098 0.53051,2.82942 -3.35995,8.48827 -3.35994,4.9515 -8.13459,9.72615 -4.59782,4.77466 -9.19563,8.84195 -4.59782,3.89046 -8.84196,6.89673 -4.0673,2.82942 -6.54304,4.24414 z m 29.70896,-36.25201 q -3.1831,0 -7.60408,4.0673 -4.42098,3.89046 -8.66511,9.19563 -4.24414,5.30517 -7.78092,10.78718 -3.35994,5.30517 -4.42098,8.1346 7.07356,-4.9515 12.90925,-10.43351 5.83569,-5.65885 9.54931,-10.4335 3.89046,-4.77466 5.48201,-7.95776 1.76839,-3.1831 0.53052,-3.35994 z"
         style="font-style:normal;font-variant:normal;font-weight:normal;font-stretch:normal;font-size:176.83906555px;line-height:125%;font-family:'Good Morning';-inkscape-font-specification:'Good Morning, Normal';text-align:start;writing-mode:lr-tb;text-anchor:start"
         id="path4292" />
      <path
         d="m 342.58168,961.34812 q 4.59781,-0.35368 7.78091,-2.12207 3.35995,-1.94523 5.83569,-4.0673 2.47575,-2.12207 4.24414,-3.89046 1.94523,-1.76839 3.71362,-1.76839 3.35994,0 5.48201,2.65259 2.29891,2.47574 3.18311,4.42097 0.70735,1.06104 -0.53052,1.76839 -1.23787,0.53052 -4.24414,4.42098 -12.20189,18.39126 -14.5008,27.41006 -2.12207,9.01879 2.29891,9.01879 6.18936,0 12.02505,-4.0673 6.01253,-4.24414 10.96402,-9.90299 4.9515,-5.83569 8.66512,-12.02505 3.71362,-6.18937 5.65885,-10.25667 0.35368,-0.70736 1.06103,-0.70736 0.53052,0 0.8842,0.53052 0.35368,0.35368 0,0.8842 -10.25667,20.33649 -20.69017,29.53212 -10.43351,9.01875 -18.03759,9.01875 -3.89046,0 -6.54304,-2.122 -1.59155,-1.41474 -3.00627,-3.71365 -1.41471,-2.47574 -1.41471,-6.89672 0.17684,-4.59782 2.29891,-11.67138 2.29891,-7.07356 7.78092,-17.86074 -4.24414,2.47574 -8.48828,3.71362 -4.24414,1.23787 -7.78092,1.23787 -4.77465,0 -7.78092,-2.12207 -3.00626,-2.12207 -3.00626,-6.18937 0,-3.53678 1.94523,-4.95149 2.12207,-1.59155 4.59782,-1.59155 1.94523,0 3.53678,0.70735 1.76839,0.53052 2.82942,1.76839 2.65259,2.65259 2.29891,5.12834 -0.35368,2.29891 -1.06103,3.71362 z m -4.24414,0.35368 q 0.88419,0 1.41471,-1.06104 0.53052,-1.23787 0.35368,-2.47574 0,-1.41472 -0.8842,-2.47575 -0.70735,-1.23788 -2.47574,-1.23788 -2.12207,0 -3.18311,1.23788 -1.06103,1.06103 -0.88419,2.47575 0.17684,1.23787 1.59155,2.47574 1.41471,1.06104 4.0673,1.06104 z"
         style="font-style:normal;font-variant:normal;font-weight:normal;font-stretch:normal;font-size:176.83906555px;line-height:125%;font-family:'Good Morning';-inkscape-font-specification:'Good Morning, Normal';text-align:start;writing-mode:lr-tb;text-anchor:start"
         id="path4294" />
      <path
         d="m 388.82509,1002.9053 q -0.88419,-0.8842 -0.88419,-2.1221 0.17683,-1.41468 0.88419,-2.47572 0.70736,-1.23787 1.76839,-1.94523 1.23787,-0.88419 2.47575,-0.88419 1.59155,0 2.47574,1.23787 0.8842,1.23787 0.53052,2.65259 -0.70735,2.12208 -2.47574,3.18308 -1.7684,0.8842 -3.18311,0.8842 -1.23787,0 -1.59155,-0.5305 z"
         style="font-style:normal;font-variant:normal;font-weight:normal;font-stretch:normal;font-size:176.83906555px;line-height:125%;font-family:'Good Morning';-inkscape-font-specification:'Good Morning, Normal';text-align:start;writing-mode:lr-tb;text-anchor:start"
         id="path4296" />
      <path
         d="m 414.53308,994.7707 q 0.70735,0.70736 1.76839,0.70736 1.94523,0 4.42098,-1.76839 2.65258,-1.94523 5.48201,-4.9515 3.00626,-3.00626 6.01252,-6.71988 3.00627,-3.71362 5.65886,-7.2504 2.82942,-3.71362 5.12833,-6.89673 2.29891,-3.1831 3.53678,-5.12833 0.35368,-0.53052 0.88419,-0.53052 0.70736,0 0.8842,0.70736 0.35368,0.53052 0,1.06103 -7.07356,11.3177 -12.90925,19.09862 -5.83569,7.60408 -10.61035,12.2019 -4.59781,4.42098 -8.31143,6.36618 -3.53678,1.9453 -6.18937,1.9453 -3.53678,0 -5.48201,-2.8295 -1.76839,-2.8294 -2.12207,-6.36618 -0.70736,-10.96402 3.1831,-20.51333 4.0673,-9.54931 9.90299,-16.44603 6.01253,-7.07356 12.73241,-11.14086 6.71989,-4.0673 11.49454,-4.0673 l 0.70736,0 q 4.24414,0.35368 4.59782,3.1831 0.53051,2.82943 -0.8842,6.36621 -1.41471,3.53678 -3.71362,6.89672 -2.12207,3.18311 -3.1831,4.59782 -0.35368,0.35368 -0.70736,0.35368 -0.17684,0 -0.53052,-0.35368 -0.53051,-0.35368 -0.17684,-1.06104 0.70736,-1.23787 2.12207,-3.71362 1.41472,-2.47574 2.47575,-4.95149 1.23787,-2.65259 1.41471,-4.77466 0.35368,-2.2989 -1.06103,-3.00626 -1.06104,-0.53052 -4.0673,2.47575 -2.82943,3.00626 -6.36621,7.95776 -3.53678,4.95149 -7.07356,11.14086 -3.53678,6.01252 -6.18937,11.67137 -2.65258,5.48202 -3.71362,9.90299 -0.88419,4.42098 0.8842,5.83569 z"
         style="font-style:normal;font-variant:normal;font-weight:normal;font-stretch:normal;font-size:176.83906555px;line-height:125%;font-family:'Good Morning';-inkscape-font-specification:'Good Morning, Normal';text-align:start;writing-mode:lr-tb;text-anchor:start"
         id="path4298" />
      <path
         d="m 449.41734,994.7707 q 0.70736,0.70736 1.76839,0.70736 1.94523,0 4.42098,-1.76839 2.65258,-1.94523 5.48201,-4.9515 3.00626,-3.00626 6.01253,-6.71988 3.00626,-3.71362 5.65885,-7.2504 2.82942,-3.71362 5.12833,-6.89673 2.29891,-3.1831 3.53678,-5.12833 0.35368,-0.53052 0.8842,-0.53052 0.70735,0 0.88419,0.70736 0.35368,0.53052 0,1.06103 -7.07356,11.3177 -12.90925,19.09862 -5.83569,7.60408 -10.61034,12.2019 -4.59782,4.42098 -8.31144,6.36618 -3.53678,1.9453 -6.18937,1.9453 -3.53678,0 -5.48201,-2.8295 -1.76839,-2.8294 -2.12207,-6.36618 -0.70735,-10.96402 3.18311,-20.51333 4.06729,-9.54931 9.90298,-16.44603 6.01253,-7.07356 12.73242,-11.14086 6.71988,-4.0673 11.49454,-4.0673 l 0.70735,0 q 4.24414,0.35368 4.59782,3.1831 0.53052,2.82943 -0.8842,6.36621 -1.41471,3.53678 -3.71362,6.89672 -2.12207,3.18311 -3.1831,4.59782 -0.35368,0.35368 -0.70736,0.35368 -0.17684,0 -0.53051,-0.35368 -0.53052,-0.35368 -0.17684,-1.06104 0.70735,-1.23787 2.12207,-3.71362 1.41471,-2.47574 2.47574,-4.95149 1.23788,-2.65259 1.41471,-4.77466 0.35368,-2.2989 -1.06103,-3.00626 -1.06103,-0.53052 -4.0673,2.47575 -2.82942,3.00626 -6.3662,7.95776 -3.53679,4.95149 -7.07357,11.14086 -3.53678,6.01252 -6.18936,11.67137 -2.65259,5.48202 -3.71362,9.90299 -0.8842,4.42098 0.88419,5.83569 z"
         style="font-style:normal;font-variant:normal;font-weight:normal;font-stretch:normal;font-size:176.83906555px;line-height:125%;font-family:'Good Morning';-inkscape-font-specification:'Good Morning, Normal';text-align:start;writing-mode:lr-tb;text-anchor:start"
         id="path4300" />
    </g>
    <g
       transform="translate(-19.285714,-795.6479)"
       style="font-style:normal;font-weight:normal;font-size:44.37814713px;line-height:125%;font-family:sans-serif;letter-spacing:0px;word-spacing:0px;fill:#000000;fill-opacity:1;stroke:none;stroke-width:1px;stroke-linecap:butt;stroke-linejoin:miter;stroke-opacity:1"
       id="flowRoot5063">
      <path
         d="m 299.12989,920.53192 q 0.31657,8.864 -10.44687,9.81372 -1.26628,0.31657 -1.89943,-0.63314 -0.63314,-7.28115 -9.81372,-9.18058 -0.94972,-0.63315 0.31657,-1.58286 13.61258,2.216 12.3463,-3.48229 l 0,-16.14516 -39.57147,0 q -0.31657,0 -5.38172,0.31657 l -1.58285,-2.216 q 1.26628,0 2.53257,0.31657 l 44.00347,0 0,-6.33143 q 0,-2.53258 -0.63315,-4.43201 0,-1.26628 0.94972,-1.26628 7.28115,1.26628 10.76344,3.48229 0.63314,0.31657 0,0.63314 -0.31657,0.63314 -1.26629,1.26629 -0.63314,0.31657 -0.63314,0.31657 l 0,6.33143 6.648,0 q 1.58286,-1.58286 4.43201,-5.38172 -0.63315,0.63315 0.94971,-1.26628 0.63315,0 1.26629,0 7.59772,4.432 9.18058,6.96457 0.31657,0.94972 -0.63314,1.26629 l -21.84345,0 0.31657,21.21031 z m -38.93832,-18.04459 q 11.08001,0.63314 13.92915,6.01486 1.89943,5.38172 -1.89943,8.54744 -4.432,2.53257 -7.28115,-2.21601 -0.31657,-0.31657 -0.31657,-1.89943 -0.31657,-0.94971 -0.31657,-1.58285 -0.63314,-3.48229 -5.06515,-7.59773 0,-1.26628 0.94972,-1.26628 z m -0.94972,-17.41145 q -2.53257,0 -5.38172,0.31658 l -1.58285,-2.21601 q 1.58285,0 2.84914,0.31658 l 45.58633,0 0,-11.71316 -39.57147,0 q -2.53257,0 -5.38172,0.31657 l -1.58285,-2.216 q 2.53257,0.31657 2.84914,0.31657 l 43.6869,0 0,-11.39658 -42.42061,0 -5.69829,0 -1.26629,-1.89943 q 0.94972,0 3.48229,0.31657 l 44.32004,0 q 2.216,-3.16571 3.16572,-4.432 0,-0.31657 0.94971,0 0.31657,0 0.63314,0 4.43201,1.89943 8.86401,5.06515 0.63315,0.94971 0.31657,1.58285 -0.31657,0.31658 -1.58285,0.94972 -0.94972,0.63314 -1.58286,0.94972 l 0.31657,23.74287 q -0.94972,2.21601 -6.01486,2.84915 -3.48229,-0.31657 -3.48229,-2.84915 l -41.4709,0 z"
         style="font-style:normal;font-variant:normal;font-weight:normal;font-stretch:normal;font-size:81.0423584px;line-height:125%;font-family:'方正小标宋_GBK';-inkscape-font-specification:'方正小标宋_GBK, Normal';text-align:start;writing-mode:lr-tb;text-anchor:start"
         id="path4281" />
      <path
         d="m 347.56536,873.6793 q 9.18058,0 11.08001,5.38172 0.31657,3.16572 -2.84914,4.43201 -3.16572,1.26628 -4.43201,-1.58286 0,-0.31658 0,-0.94972 0,-0.63314 -0.31657,-0.94971 -0.63314,-3.16572 -3.48229,-5.38172 l 0,18.04458 q -1.26629,1.58286 -5.06515,1.58286 -2.53257,-0.31657 -2.53257,-2.53257 l 0,-11.08001 q -9.49715,9.49715 -15.82859,11.39658 -0.94971,0 -0.94971,-0.94971 9.81372,-8.23087 15.19544,-22.79317 l -7.28115,0 q -0.31657,0 -5.38172,0.63315 l -1.89943,-2.53258 q 0.31657,-0.31657 2.84915,0 l 13.29601,0 0,-8.23086 q -0.31657,-3.79886 -0.31657,-4.11543 -0.31657,-0.94972 0.63314,-0.94972 6.64801,0.63314 8.86401,1.26629 0.63314,0.31657 0,1.26628 -0.63314,0.94972 -1.58286,1.58286 l 0,9.18058 1.58286,0 q 0.63314,-0.63314 1.58286,-1.89943 2.216,-2.216 2.84914,-2.84914 0.31658,-0.63315 0.63315,0 4.74857,3.48229 5.69829,5.69829 0.31657,0.31657 -0.63315,0.94971 l -11.71315,0 0,5.38172 z m 34.18975,-5.38172 q 4.74857,11.71316 19.31087,15.82859 1.58286,0.94971 0,2.216 -5.38172,2.216 -7.28115,5.06515 0,0 -0.31657,0.31657 -0.31657,0.63314 -0.63314,0.63314 -10.44687,-6.33143 -12.3463,-24.05945 l -1.58286,0 0,25.32574 q -7.59772,3.79886 -8.54744,-0.94972 l 0,-12.97944 q -6.33143,5.6983 -14.87887,10.1303 -1.26628,0 -0.94971,-0.94972 10.44687,-10.13029 14.5623,-20.57716 l -0.94972,0 q -2.53257,0.31657 -5.06515,0.63315 l -2.216,-2.53258 q 0.31657,-0.31657 3.16572,0 l 6.33143,0 0,-9.18058 -0.31657,-4.11543 0,0.31657 q 0,-0.63314 0.63315,-0.63314 5.06514,0 9.81372,1.58286 0.63314,0.31657 0,0.94971 -0.63314,0.94972 -1.58286,1.89943 l 0,9.18058 6.64801,0 q 0.63314,-0.63314 2.53257,-2.84914 1.89943,-2.216 2.216,-2.84915 0.31657,-0.31657 0.94972,0 0.31657,0 0.31657,0 5.69829,3.16572 7.91429,6.01486 0.94972,1.26629 -0.31657,1.58286 l -17.41144,0 z m 6.96457,34.82289 q -1.89943,0.31657 -3.16571,1.26629 -17.72802,24.69259 -57.29948,25.00916 -1.58286,-0.31657 -0.63315,-1.58286 34.50632,-5.69829 47.16919,-25.95888 l -22.16002,0 q -12.66287,12.02973 -24.37602,16.46173 -0.94972,0.31658 -1.26629,0.63315 -1.26629,-0.63315 -0.63314,-1.58286 15.82858,-9.18058 22.79316,-26.27545 0.31657,-1.26629 1.26629,-0.63315 1.26628,0.63315 5.06514,1.89943 3.48229,1.26629 5.06515,1.89943 1.26629,0.63315 0,1.89943 -0.31657,0 -0.94971,0.31658 -1.58286,0.31657 -1.89943,0.94971 -1.89943,1.26629 -3.16572,2.84915 l 19.94402,0 q 1.58286,-2.21601 3.48229,-4.43201 0.63314,-0.63314 1.89943,0 0.94971,0.63315 4.432,2.84915 3.79886,2.216 4.432,2.84914 1.26629,0.94972 0,1.58286 z m -42.10403,4.11543 q 10.13029,0.63315 11.71315,6.33144 0.63314,4.11543 -2.84915,5.06515 -5.06514,0.63314 -5.69829,-2.84915 0,-0.63314 0,-0.94972 0.31657,-3.79886 -3.48229,-6.648 0.31658,-0.63314 0.31658,-0.94972 z"
         style="font-style:normal;font-variant:normal;font-weight:normal;font-stretch:normal;font-size:81.0423584px;line-height:125%;font-family:'方正小标宋_GBK';-inkscape-font-specification:'方正小标宋_GBK, Normal';text-align:start;writing-mode:lr-tb;text-anchor:start"
         id="path4283" />
      <path
         d="m 411.51285,855.31814 q 9.81372,0 12.66287,5.69829 1.26628,3.48229 -1.58286,6.01487 -4.11544,2.84914 -6.33144,0.31657 -0.63314,-0.94972 -0.94971,-3.16572 -0.31657,-4.74858 -4.11543,-7.59772 -0.63315,-0.63314 -0.63315,-0.94972 0,-0.31657 0.94972,-0.31657 z m -5.38172,19.94402 q 10.44686,0.31657 12.34629,6.96458 0.63315,3.79886 -2.53257,5.69829 -3.48229,1.26629 -5.38172,-1.58286 -0.63314,-0.94971 -0.63314,-3.48229 0,-4.74857 -3.79886,-6.96458 -0.31657,-0.31657 0,-0.63314 z m 21.52687,-5.38172 q 1.26629,-0.94971 0.63315,0.63314 -0.63315,2.53258 -2.53258,8.86401 -7.91429,27.85831 -7.59772,31.3406 0,1.58286 1.58286,5.69829 1.26629,4.11544 1.26629,5.69829 -0.31657,5.06515 -5.06515,6.01487 -5.06515,0 -5.06515,-5.06515 0,-0.94972 0.31658,-2.84915 2.216,-11.39658 -5.06515,-14.5623 -0.31657,-0.63314 0.31657,-0.94971 3.79886,6.96458 14.87887,-20.89373 3.79886,-8.54744 6.33143,-13.92916 z m 49.38519,-7.28115 q -18.67773,1.26629 -37.35546,2.216 -0.63314,0 -0.63314,0.31658 l 0,21.84344 q 0,17.41145 -2.84915,25.64231 -2.84914,8.23087 -11.71315,15.51202 -1.26629,0.63314 -1.26629,0.63314 -0.31657,-0.31657 0.31657,-1.58286 8.54744,-9.81372 7.91429,-38.62175 l 0,-21.84345 -0.63314,-7.28115 q 0,-0.31657 0.63314,-0.31657 0.94972,0.31657 3.16572,1.26629 4.43201,1.26629 6.33144,2.53257 0,0 0,0.31658 17.72801,-4.11544 26.27545,-8.86401 0.94971,-0.63315 1.58286,0 0.94971,0.94971 5.06514,4.432 2.21601,1.89943 3.16572,2.84915 0.63314,0.31657 0.63314,0.63314 -0.31657,0.31657 -0.63314,0.31657 z m -18.67773,14.5623 q 0,10.1303 4.74858,20.57716 4.74857,-5.38172 9.49715,-12.02972 0,-0.31657 1.26628,-0.31657 4.43201,3.16571 7.9143,6.648 0.31657,0.31657 0,1.26629 -0.63315,0 -1.89943,0 -1.26629,0 -1.89943,0.31657 -5.69829,1.89943 -14.24573,5.69829 7.28115,13.92916 19.31087,19.94402 0.63315,0.63314 0,0.94971 -6.01486,0.31658 -8.864,6.01487 -0.63315,0.31657 -1.26629,0.31657 -14.87887,-13.61259 -15.51201,-39.57147 l 0,-9.81372 -6.64801,0.31657 0,38.30518 8.86401,-3.79886 q 1.58286,0.31657 0.94971,1.26629 -8.23086,7.28115 -13.61258,14.24572 -1.26629,0.63315 -1.58286,0 -1.58286,-2.53257 -3.48229,-6.96457 0,-0.63315 0.31657,-0.94972 0.94972,-1.58286 0.94972,-6.64801 l 0,-40.2046 q 5.06515,1.26628 7.59772,3.16571 l 0,0.94972 q 9.49715,-3.16572 17.41144,-8.23087 0.94972,-0.63314 1.26629,0 2.216,1.89943 7.28115,6.64801 0.31657,0.31657 -0.31657,0.63314 l -18.04459,1.26629 z"
         style="font-style:normal;font-variant:normal;font-weight:normal;font-stretch:normal;font-size:81.0423584px;line-height:125%;font-family:'方正小标宋_GBK';-inkscape-font-specification:'方正小标宋_GBK, Normal';text-align:start;writing-mode:lr-tb;text-anchor:start"
         id="path4285" />
    </g>
  </g>
</svg>
